<?xml version="1.0" standalone="no"?>
<!DOCTYPE svg PUBLIC "-//W3C//DTD SVG 20010904//EN"
 "http://www.w3.org/TR/2001/REC-SVG-20010904/DTD/svg10.dtd">
<svg version="1.0" xmlns="http://www.w3.org/2000/svg"
 width="260.000000pt" height="260.000000pt" viewBox="0 0 260.000000 260.000000"
 preserveAspectRatio="xMidYMid meet">
<metadata>
Created by potrace 1.14, written by Peter Selinger 2001-2017
</metadata>
<g transform="translate(0.000000,260.000000) scale(0.100000,-0.100000)"
fill="#000000" stroke="none">
<path d="M393 2399 c-67 -12 -125 -42 -174 -90 -146 -144 -128 -383 38 -504
l42 -30 0 -782 c1 -735 2 -783 18 -791 10 -5 299 -8 643 -7 547 2 633 4 686
18 302 82 476 323 477 662 2 382 -251 646 -618 646 -116 0 -239 -45 -323 -117
l-40 -34 5 38 c3 20 16 75 30 121 61 213 170 342 333 397 50 17 90 22 185 23
l122 2 27 -66 c74 -173 277 -249 452 -170 81 37 163 144 180 235 44 241 -181
452 -411 385 -68 -19 -95 -35 -150 -85 l-40 -37 -70 6 c-247 24 -458 -29 -625
-157 -70 -53 -101 -85 -154 -159 -30 -44 -86 -143 -93 -168 -1 -5 -12 -37 -24
-70 -45 -127 -73 -330 -73 -530 1 -236 28 -411 90 -566 19 -48 34 -88 34 -90
0 -2 -80 -4 -177 -4 l-178 0 -1 652 c-1 589 1 653 15 658 47 16 127 116 151
189 15 45 15 147 1 194 -49 160 -214 261 -378 231z m125 -244 c20 -17 33 -39
37 -64 17 -103 -101 -166 -176 -94 -98 92 37 244 139 158z m1706 -68 c36 -38
42 -75 21 -117 -41 -80 -153 -82 -190 -3 -35 74 15 153 97 153 33 0 46 -6 72
-33z m-618 -853 c142 -42 226 -178 226 -364 0 -118 -15 -183 -57 -250 -71
-111 -162 -161 -291 -162 -137 -1 -261 101 -315 259 -19 54 -24 89 -23 168 0
88 3 107 28 162 32 70 104 145 163 169 80 34 191 41 269 18z"/>
</g>
</svg>
